<svg height='100px' width='100px'  fill="#000000" xmlns:x="http://ns.adobe.com/Extensibility/1.0/" xmlns:i="http://ns.adobe.com/AdobeIllustrator/10.0/" xmlns:graph="http://ns.adobe.com/Graphs/1.0/" xmlns="http://www.w3.org/2000/svg" xmlns:xlink="http://www.w3.org/1999/xlink" version="1.1" x="0px" y="0px" viewBox="0 0 100 100" style="enable-background:new 0 0 100 100;" xml:space="preserve"><g><g i:extraneous="self"><g><path d="M5273.1,2400.1v-2c0-2.8-5-4-9.7-4s-9.7,1.3-9.7,4v2c0,1.8,0.7,3.6,2,4.9l5,4.9c0.3,0.3,0.4,0.6,0.4,1v6.4     c0,0.4,0.2,0.7,0.6,0.8l2.9,0.9c0.5,0.1,1-0.2,1-0.8v-7.2c0-0.4,0.2-0.7,0.4-1l5.1-5C5272.4,2403.7,5273.1,2401.9,5273.1,2400.1z      M5263.4,2400c-4.8,0-7.4-1.3-7.5-1.8v0c0.1-0.5,2.7-1.8,7.5-1.8c4.8,0,7.3,1.3,7.5,1.8C5270.7,2398.7,5268.2,2400,5263.4,2400z"></path><path d="M5268.4,2410.3c-0.6,0-1,0.4-1,1c0,0.6,0.4,1,1,1h4.3c0.6,0,1-0.4,1-1c0-0.6-0.4-1-1-1H5268.4z"></path><path d="M5272.7,2413.7h-4.3c-0.6,0-1,0.4-1,1c0,0.6,0.4,1,1,1h4.3c0.6,0,1-0.4,1-1C5273.7,2414.1,5273.3,2413.7,5272.7,2413.7z"></path><path d="M5272.7,2417h-4.3c-0.6,0-1,0.4-1,1c0,0.6,0.4,1,1,1h4.3c0.6,0,1-0.4,1-1C5273.7,2417.5,5273.3,2417,5272.7,2417z"></path></g><g><ellipse transform="matrix(0.1082 -0.9941 0.9941 0.1082 8.6649 57.8009)" cx="36.5" cy="24.1" rx="8.7" ry="8.7"></ellipse><path d="M16.6,91.4c-0.9,2.3,0.3,5,2.7,5.8c0.5,0.2,1.1,0.3,1.6,0.3c1.8,0,3.6-1.1,4.2-2.9l6.1-16.4l-7-7L16.6,91.4z"></path><path d="M84.8,29h-1.5V5.3c0-1.6-1.3-2.8-2.8-2.8h-58c-1.4,0-2.5,1-2.8,2.3l-8.4,41.3c-0.3,1.4,0.5,2.8,1.8,3.2l10.4,3.8     c-0.7,3.2-1.3,5.6-1.3,5.6c-0.6,2.5,0.2,5,2,6.8l12.6,12.6c0.1,0.1,0.2,0.3,0.3,0.4l5.5,15.9c0.6,1.9,2.4,3,4.3,3     c0.5,0,1-0.1,1.5-0.2c2.4-0.8,3.6-3.4,2.8-5.7l-5.5-15.9c-0.5-1.4-1.3-2.8-2.4-3.8L36,64.7l6.4-20.2l5.5,1.5c2,0.6,4.2,0.6,6.2,0     L62,44c2.1-0.6,3.3-2.7,2.8-4.8c-0.6-2.1-2.7-3.4-4.8-2.8l-7.8,2.1c-0.7,0.2-1.4,0.2-2.1,0l-10.3-2.8l-7.2-0.4     c-1.9-0.1-5.6,1.8-6.1,4.4c-0.2,1-1,4.4-1.8,8l-7.4-2.7l7.4-36.6h52.9V29H76c-2.2,0-4.1,1.8-4.1,4.1v8.8c0,2.2,1.8,4.1,4.1,4.1     h8.8c2.2,0,4.1-1.8,4.1-4.1v-8.8C88.9,30.8,87,29,84.8,29z"></path></g></g></g></svg>